<?xml version="1.0" encoding="UTF-8"?>
<!-- Generated by Pixelmator Pro 3.7 -->
<svg width="59" height="95" viewBox="0 0 59 95" xmlns="http://www.w3.org/2000/svg">
    <g id="Regular-S-copy">
        <path id="Path" fill="#ffffff" stroke="none" d="M 15.463379 92.494141 C 18.783691 92.494141 20.736816 90.638672 20.687988 87.464844 L 19.955444 44.349609 C 19.955444 42.982422 20.590332 41.957031 21.762207 41.419922 C 26.840332 39.222656 29.184082 36.927734 28.891113 30.140625 L 27.816895 6.410156 C 27.719238 4.701172 26.742676 3.675781 25.131348 3.675781 C 23.568848 3.675781 22.641113 4.75 22.641113 6.458984 L 22.934082 29.554688 C 22.934082 30.873047 22.055176 31.751953 20.736816 31.751953 C 19.418457 31.751953 18.490723 30.921875 18.490723 29.652344 L 18.100098 5.775391 C 18.051147 4.115234 17.074707 3.138672 15.463379 3.138672 C 13.900879 3.138672 12.924316 4.115234 12.875488 5.775391 L 12.484741 29.652344 C 12.484741 30.921875 11.557129 31.751953 10.189941 31.751953 C 8.92041 31.751953 8.041504 30.873047 8.041504 29.554688 L 8.285645 6.458984 C 8.285645 4.75 7.406738 3.675781 5.844238 3.675781 C 4.23291 3.675781 3.20752 4.701172 3.109741 6.410156 L 2.035645 30.140625 C 1.742676 36.927734 4.086426 39.222656 9.213379 41.419922 C 10.385254 41.957031 11.02002 42.982422 11.02002 44.349609 L 10.287598 87.464844 C 10.23877 90.638672 12.191895 92.494141 15.463379 92.494141 Z M 45.932129 58.363281 L 45.199707 87.416016 C 45.102051 90.638672 47.104004 92.494141 50.375488 92.494141 C 53.695801 92.494141 55.648926 90.833984 55.648926 87.757813 L 55.648926 6.117188 C 55.648926 4.066406 54.23291 3.138672 52.767944 3.138672 C 51.303223 3.138672 50.326538 3.919922 48.959473 5.824219 C 42.807129 14.515625 38.656738 31.019531 38.656738 46.107422 L 38.656738 47.767578 C 38.656738 50.306641 39.682129 52.308594 41.586426 53.578125 L 44.027832 55.189453 C 45.346191 56.117188 45.980957 57.142578 45.932129 58.363281 Z"/>
    </g>
</svg>
